<svg width="57.000000" height="57.000000" viewBox="0 0 57 57" fill="none" xmlns="http://www.w3.org/2000/svg" xmlns:xlink="http://www.w3.org/1999/xlink">
	<desc>
			Created with Pixso.
	</desc>
	<defs>
		<clipPath id="clip34_188">
			<rect id="Close" rx="28.240625" width="56.481251" height="56.481251" fill="white" fill-opacity="0"/>
		</clipPath>
	</defs>
	<rect id="Close" rx="28.240625" width="56.481251" height="56.481251" fill="#141414" fill-opacity="0.700000"/>
	<g clip-path="url(#clip34_188)">
		<path id="Vector" d="M36.11 20.37C35.62 19.89 34.84 19.89 34.35 20.37L28.24 26.47L22.12 20.36C21.64 19.87 20.85 19.87 20.36 20.36C19.87 20.85 19.87 21.64 20.36 22.12L26.47 28.24L20.36 34.35C19.87 34.84 19.87 35.62 20.36 36.11C20.85 36.6 21.64 36.6 22.12 36.11L28.24 30L34.35 36.11C34.84 36.6 35.62 36.6 36.11 36.11C36.6 35.62 36.6 34.84 36.11 34.35L30 28.24L36.11 22.12C36.59 21.65 36.59 20.85 36.11 20.37Z" fill="#FFFFFF" fill-opacity="1.000000" fill-rule="nonzero"/>
	</g>
</svg>
